<?xml version="1.0" encoding="utf-8"?>
<!-- Generator: Adobe Illustrator 24.3.0, SVG Export Plug-In . SVG Version: 6.00 Build 0)  -->
<svg version="1.1" id="Layer_1" xmlns="http://www.w3.org/2000/svg" xmlns:xlink="http://www.w3.org/1999/xlink" x="0px" y="0px"
	 viewBox="0 0 781.7 203.6" style="enable-background:new 0 0 781.7 203.6;" xml:space="preserve">
<style type="text/css">
	.st0{display:none;}
	.st1{display:inline;fill:#171E26;}
	.st2{display:inline;fill:#D7D7D7;}
	.st3{display:inline;}
	.st4{font-family:'ProximaNova-Semibold';}
	.st5{font-size:138px;}
	.st6{fill:none;stroke:#000000;stroke-width:1.0303;stroke-miterlimit:10;}
	.st7{display:inline;fill:none;stroke:#000000;stroke-width:13.6569;stroke-miterlimit:10;}
	.st8{display:inline;stroke:#000000;stroke-width:12.8887;stroke-miterlimit:10.0004;}
	.st9{fill:#171E26;}
	.st10{fill:none;stroke:#000000;stroke-width:1.0275;stroke-miterlimit:10;}
	.st11{display:inline;fill:none;stroke:#171E26;stroke-width:12.8882;stroke-miterlimit:10;}
	.st12{display:inline;fill:#FFB900;}
	.st13{display:inline;fill:none;stroke:#000000;stroke-width:1.4053;stroke-miterlimit:10;}
	.st14{fill:#FFB900;}
	.st15{display:inline;fill:none;stroke:#FFB900;stroke-width:12.8882;stroke-miterlimit:10;}
	.st16{fill:#D7D7D7;stroke:#D7D7D7;stroke-miterlimit:10;}
	.st17{fill:#D7D7D7;stroke:#D7D7D7;stroke-width:1.0275;stroke-miterlimit:10;}
	.st18{fill:#D7D7D7;stroke:#D7D7D7;stroke-width:12.8882;stroke-miterlimit:10;}
	.st19{fill:#D7D7D7;stroke:#D7D7D7;stroke-width:1.4053;stroke-miterlimit:10;}
	.st20{display:inline;fill:none;}
	.st21{font-family:'ArialMT';}
	.st22{font-size:12px;}
	.st23{font-size:106.0949px;}
</style>
<g id="Layer_5" class="st0">
	<rect class="st1" width="781.7" height="203.6"/>
</g>
<g id="Layer_5_copy" class="st0">
	<rect class="st2" width="781.7" height="203.6"/>
</g>
<g id="Layer_1_1_" class="st0">
	<text transform="matrix(1 0 0 1 34.9024 180.2632)" class="st3 st4 st5">RACEMATE</text>
</g>
<g id="Layer_1_copy" class="st0">
	<path class="st3" d="M76.9,147.5h-16V189H44.7V77.9h40.4c18.2,0,30.1,14.3,30.1,34.8c0,19.8-10.8,30.5-21.8,32.7l22.5,43.7H97.3
		L76.9,147.5z M82.9,95H60.8v35.3h22.1c9.1,0,15.7-7,15.7-17.7S92,95,82.9,95z"/>
	<path class="st3" d="M189.7,167.7h-43.6l-6.8,21.3h-17.7l36.2-111.2H178L214.2,189h-17.7L189.7,167.7z M150.7,150.6h34.5
		l-17.3-56.2L150.7,150.6z"/>
	<path class="st3" d="M215.3,133.5c0-34.2,21.1-57.5,47.6-57.5c19.3,0,30.8,11.7,37.7,25l-13.8,8.5c-4.4-9.2-13.2-16.2-23.9-16.2
		c-17.5,0-31,16.8-31,40.2c0,23.3,13.5,40.2,31,40.2c10.6,0,19.5-6.8,23.9-16.2l13.8,8.5c-7,13.3-18.4,25-37.7,25
		C236.4,191.1,215.3,167.7,215.3,133.5z"/>
	<path class="st3" d="M313.5,77.9h63.1V95h-46.9v28.8h46V141h-46v30.8h46.9V189h-63.1V77.9z"/>
	<path class="st3" d="M472.6,104.9l-28.3,84.2h-6.9l-28.2-84.2v84.2h-16.1V77.9h22.8l25,74.9L466,77.9h22.8v111.2h-16.1L472.6,104.9
		L472.6,104.9z"/>
	<path class="st3" d="M566.8,167.7h-43.6l-6.8,21.3h-17.7l36.2-111.2H555L591.2,189h-17.7L566.8,167.7z M527.7,150.6h34.5
		l-17.3-56.2L527.7,150.6z"/>
	<g id="XMLID_1_" class="st3">
		<g>
			<rect x="614.2" y="31.2" width="16.1" height="157.9"/>
		</g>
		<g>
			<line class="st6" x1="630.4" y1="31.2" x2="614.2" y2="31.2"/>
		</g>
	</g>
	<path class="st3" d="M671.9,77.9H735V95h-46.9v28.8h46V141h-46v30.8H735V189h-63.1V77.9z"/>
	<path class="st7" d="M552,40.2c0,0,59.4-35.5,139.9,0"/>
	
		<rect x="539.4" y="12.2" transform="matrix(0.9316 -0.3636 0.3636 0.9316 23.4931 201.8345)" class="st8" width="16.9" height="52.6"/>
	
		<rect x="667.8" y="31.9" transform="matrix(0.3636 -0.9316 0.9316 0.3636 404.1015 672.2698)" class="st8" width="52.6" height="16.9"/>
</g>
<g id="Layer_1_copy_4" class="st0">
	<path class="st1" d="M64.5,130.8H40.1V194H15.5V24.7H77c27.7,0,45.8,21.8,45.8,53c0,30.2-16.4,46.4-33.2,49.7l34.2,66.5H95.6
		L64.5,130.8z M73.7,50.9H40.1v53.8h33.6c13.9,0,23.9-10.7,23.9-26.9S87.6,50.9,73.7,50.9z"/>
	<path class="st1" d="M189.7,148.7h-43.6l-6.8,21.3h-17.7l36.2-111.2H178L214.2,170h-17.7L189.7,148.7z M150.7,131.6h34.5
		l-17.3-56.2L150.7,131.6z"/>
	<path class="st1" d="M215.3,114.5c0-34.2,21.1-57.5,47.6-57.5c19.3,0,30.8,11.7,37.7,25l-13.8,8.5c-4.4-9.2-13.2-16.2-23.9-16.2
		c-17.5,0-31,16.8-31,40.2c0,23.3,13.5,40.2,31,40.2c10.6,0,19.5-6.8,23.9-16.2l13.8,8.5c-7,13.3-18.4,25-37.7,25
		C236.4,172.1,215.3,148.7,215.3,114.5z"/>
	<path class="st1" d="M313.5,58.9h63.1V76h-46.9v28.8h46V122h-46v30.8h46.9V170h-63.1V58.9z"/>
	<path class="st1" d="M472.6,85.9l-28.3,84.2h-6.9l-28.2-84.2v84.2h-16.1V58.9h22.8l25,74.9L466,58.9h22.8v111.2h-16.1L472.6,85.9
		L472.6,85.9z"/>
	<path class="st1" d="M566.8,148.7h-43.6l-6.8,21.3h-17.7l36.2-111.2H555L591.2,170h-17.7L566.8,148.7z M527.7,131.6h34.5
		l-17.3-56.2L527.7,131.6z"/>
	<g id="XMLID_3_" class="st3">
		<g>
			<rect x="614.2" y="36" class="st9" width="16.1" height="157"/>
		</g>
		<g>
			<line class="st10" x1="630.4" y1="36" x2="614.2" y2="36"/>
		</g>
	</g>
	<path class="st1" d="M664.9,58.9H728V76h-46.9v28.8h46V122h-46v30.8H728V170h-63.1V58.9z"/>
	<line class="st11" x1="562.4" y1="31" x2="678.7" y2="31"/>
	
		<rect x="546.3" y="6" transform="matrix(1 -5.837406e-03 5.837406e-03 1 -0.1672 3.2281)" class="st1" width="13.2" height="48.5"/>
	
		<rect x="530.2" y="6.1" transform="matrix(1 -5.837397e-03 5.837397e-03 1 -0.168 3.1358)" class="st1" width="13.8" height="48.5"/>
	
		<rect x="697.8" y="6" transform="matrix(1 -5.837406e-03 5.837406e-03 1 -0.1646 4.1125)" class="st1" width="13.2" height="48.5"/>
	
		<rect x="681.7" y="6.1" transform="matrix(1 -5.837397e-03 5.837397e-03 1 -0.1654 4.0202)" class="st1" width="13.8" height="48.5"/>
	
		<rect x="966.3" y="0.2" transform="matrix(1 -5.837381e-03 5.837381e-03 1 -0.1261 5.6847)" class="st12" width="14.9" height="48.5"/>
	
		<rect x="950.1" y="0.4" transform="matrix(1 -5.837381e-03 5.837381e-03 1 -0.1276 5.5901)" class="st12" width="14.9" height="48.5"/>
	<line class="st11" x1="773.9" y1="187.3" x2="105.5" y2="187.3"/>
	<line class="st11" x1="767.4" y1="189.8" x2="767.4" y2="24.7"/>
	<g class="st3">
		<path class="st9" d="M527.7,37.6H114c0,0-2.6-3.7-9.2-7.8c-5.3-3.3-11.3-5.2-11.3-5.2h434.1v13H527.7z"/>
	</g>
	<line class="st11" x1="714" y1="31" x2="773.8" y2="31"/>
	<rect x="835.2" y="4.9" class="st13" width="23" height="29"/>
</g>
<g id="Layer_1_copy_3" class="st0">
	<path class="st12" d="M64.5,130.7H40.1v63.2H15.5V24.6H77c27.7,0,45.8,21.8,45.8,53c0,30.2-16.4,46.4-33.2,49.7l34.2,66.5H95.6
		L64.5,130.7z M73.7,50.7H40.1v53.8h33.6c13.9,0,23.9-10.7,23.9-26.9S87.6,50.7,73.7,50.7z"/>
	<path class="st12" d="M189.7,148.7h-43.6l-6.8,21.3h-17.7l36.2-111.2H178L214.2,170h-17.7L189.7,148.7z M150.7,131.6h34.5
		l-17.3-56.2L150.7,131.6z"/>
	<path class="st12" d="M215.3,114.5c0-34.2,21.1-57.5,47.6-57.5c19.3,0,30.8,11.7,37.7,25l-13.8,8.5c-4.4-9.2-13.2-16.2-23.9-16.2
		c-17.5,0-31,16.8-31,40.2c0,23.3,13.5,40.2,31,40.2c10.6,0,19.5-6.8,23.9-16.2l13.8,8.5c-7,13.3-18.4,25-37.7,25
		C236.4,172.1,215.3,148.7,215.3,114.5z"/>
	<path class="st12" d="M313.5,58.9h63.1V76h-46.9v28.8h46V122h-46v30.8h46.9V170h-63.1V58.9z"/>
	<path class="st12" d="M472.6,85.9l-28.3,84.2h-6.9l-28.2-84.2v84.2h-16.1V58.9h22.8l25,74.9L466,58.9h22.8v111.2h-16.1L472.6,85.9
		L472.6,85.9z"/>
	<path class="st12" d="M566.8,148.7h-43.6l-6.8,21.3h-17.7l36.2-111.2H555L591.2,170h-17.7L566.8,148.7z M527.7,131.6h34.5
		l-17.3-56.2L527.7,131.6z"/>
	<g id="XMLID_2_" class="st3">
		<g>
			<rect x="614.2" y="36" class="st14" width="16.1" height="157"/>
		</g>
		<g>
			<line class="st10" x1="630.4" y1="36" x2="614.2" y2="36"/>
		</g>
	</g>
	<path class="st12" d="M664.9,58.9H728V76h-46.9v28.8h46V122h-46v30.8H728V170h-63.1V58.9z"/>
	<line class="st15" x1="562.4" y1="31" x2="678.7" y2="31"/>
	
		<rect x="546.3" y="6" transform="matrix(1 -5.837406e-03 5.837406e-03 1 -0.1672 3.2281)" class="st12" width="13.2" height="48.5"/>
	
		<rect x="530.2" y="6.1" transform="matrix(1 -5.837397e-03 5.837397e-03 1 -0.168 3.1358)" class="st12" width="13.8" height="48.5"/>
	
		<rect x="697.8" y="6" transform="matrix(1 -5.837406e-03 5.837406e-03 1 -0.1646 4.1125)" class="st12" width="13.2" height="48.5"/>
	
		<rect x="681.7" y="6.1" transform="matrix(1 -5.837397e-03 5.837397e-03 1 -0.1654 4.0202)" class="st12" width="13.8" height="48.5"/>
	
		<rect x="966.3" y="0.2" transform="matrix(1 -5.837381e-03 5.837381e-03 1 -0.1261 5.6847)" class="st12" width="14.9" height="48.5"/>
	
		<rect x="950.1" y="0.4" transform="matrix(1 -5.837381e-03 5.837381e-03 1 -0.1276 5.5901)" class="st12" width="14.9" height="48.5"/>
	<line class="st15" x1="773.9" y1="187.3" x2="105.5" y2="187.3"/>
	<line class="st15" x1="767.4" y1="189.8" x2="767.4" y2="24.7"/>
	<g class="st3">
		<path class="st14" d="M527.7,37.6H114c0,0-2.6-3.7-9.2-7.8c-5.3-3.3-11.3-5.2-11.3-5.2h434.1v13H527.7z"/>
	</g>
	<line class="st15" x1="714" y1="31" x2="773.8" y2="31"/>
	<rect x="835.2" y="4.9" class="st13" width="23" height="29"/>
</g>
<g id="Layer_1_copy_3_1_">
	<path class="st16" d="M64.5,130.7H40.1v63.2H15.5V24.6H77c27.7,0,45.8,21.8,45.8,53c0,30.2-16.4,46.4-33.2,49.7l34.2,66.5H95.6
		L64.5,130.7z M73.7,50.7H40.1v53.8h33.6c13.9,0,23.9-10.7,23.9-26.9S87.6,50.7,73.7,50.7z"/>
	<path class="st16" d="M189.7,148.7h-43.6l-6.8,21.3h-17.7l36.2-111.2H178L214.2,170h-17.7L189.7,148.7z M150.7,131.6h34.5
		l-17.3-56.2L150.7,131.6z"/>
	<path class="st16" d="M215.3,114.5c0-34.2,21.1-57.5,47.6-57.5c19.3,0,30.8,11.7,37.7,25l-13.8,8.5c-4.4-9.2-13.2-16.2-23.9-16.2
		c-17.5,0-31,16.8-31,40.2c0,23.3,13.5,40.2,31,40.2c10.6,0,19.5-6.8,23.9-16.2l13.8,8.5c-7,13.3-18.4,25-37.7,25
		C236.4,172.1,215.3,148.7,215.3,114.5z"/>
	<path class="st16" d="M313.5,58.9h63.1V76h-46.9v28.8h46V122h-46v30.8h46.9V170h-63.1V58.9z"/>
	<path class="st16" d="M472.6,85.9l-28.3,84.2h-6.9l-28.2-84.2v84.2h-16.1V58.9h22.8l25,74.9L466,58.9h22.8v111.2h-16.1L472.6,85.9
		L472.6,85.9z"/>
	<path class="st16" d="M566.8,148.7h-43.6l-6.8,21.3h-17.7l36.2-111.2H555L591.2,170h-17.7L566.8,148.7z M527.7,131.6h34.5
		l-17.3-56.2L527.7,131.6z"/>
	<g id="XMLID_4_">
		<g>
			<rect x="614.2" y="36" class="st16" width="16.1" height="157"/>
		</g>
		<g>
			<line class="st17" x1="630.4" y1="36" x2="614.2" y2="36"/>
		</g>
	</g>
	<path class="st16" d="M664.9,58.9H728V76h-46.9v28.8h46V122h-46v30.8H728V170h-63.1V58.9z"/>
	<line class="st18" x1="562.4" y1="31" x2="678.7" y2="31"/>
	
		<rect x="546.3" y="6" transform="matrix(1 -5.837406e-03 5.837406e-03 1 -0.1672 3.2281)" class="st16" width="13.2" height="48.5"/>
	
		<rect x="530.2" y="6.1" transform="matrix(1 -5.837397e-03 5.837397e-03 1 -0.168 3.1358)" class="st16" width="13.8" height="48.5"/>
	
		<rect x="697.8" y="6" transform="matrix(1 -5.837406e-03 5.837406e-03 1 -0.1646 4.1125)" class="st16" width="13.2" height="48.5"/>
	
		<rect x="681.7" y="6.1" transform="matrix(1 -5.837397e-03 5.837397e-03 1 -0.1654 4.0202)" class="st16" width="13.8" height="48.5"/>
	
		<rect x="966.3" y="0.2" transform="matrix(1 -5.837381e-03 5.837381e-03 1 -0.1261 5.6847)" class="st16" width="14.9" height="48.5"/>
	
		<rect x="950.1" y="0.4" transform="matrix(1 -5.837381e-03 5.837381e-03 1 -0.1276 5.5901)" class="st16" width="14.9" height="48.5"/>
	<line class="st18" x1="773.9" y1="187.3" x2="105.5" y2="187.3"/>
	<line class="st18" x1="767.4" y1="189.8" x2="767.4" y2="24.7"/>
	<g>
		<path class="st16" d="M527.7,37.6H114c0,0-2.6-3.7-9.2-7.8c-5.3-3.3-11.3-5.2-11.3-5.2h434.1v13H527.7z"/>
	</g>
	<line class="st18" x1="714" y1="31" x2="773.8" y2="31"/>
	<rect x="835.2" y="4.9" class="st19" width="23" height="29"/>
</g>
<g id="Layer_1_copy_2" class="st0">
	<path id="SVGID_x5F_1_x5F_" class="st20" d="M130.8,139.6c0,0,224.5-102,508,0"/>
	<text transform="matrix(0.994 -0.1097 0.1097 0.994 297.5905 98.9427)" class="st3 st21 st22"> </text>
	<text transform="matrix(0.998 -6.281564e-02 6.281564e-02 0.998 300.8466 97.8356)" class="st3 st4 st23">R</text>
	<text transform="matrix(0.9996 2.930380e-02 -2.930380e-02 0.9996 367.389 93.5426)" class="st3 st4 st23">A</text>
	<text transform="matrix(0.9922 0.1246 -0.1246 0.9922 438.8154 95.6188)" class="st3 st4 st23">C</text>
	<text transform="matrix(0.9774 0.2116 -0.2116 0.9774 510.607 104.8913)" class="st3 st4 st23">E</text>
	<text transform="matrix(0.9522 0.3055 -0.3055 0.9522 570.6622 117.2335)" class="st3 st4 st23">M</text>
	<text class="st3 st21 st22"> </text>
	
		<rect x="145.1" y="32.1" transform="matrix(0.9531 -0.3025 0.3025 0.9531 -20.8137 54.0645)" class="st3" width="38.1" height="124.2"/>
	
		<rect x="104.8" y="44.9" transform="matrix(0.9531 -0.3025 0.3025 0.9531 -26.5714 42.4726)" class="st3" width="38.1" height="124.2"/>
	
		<rect x="65.2" y="57.8" transform="matrix(0.9531 -0.3025 0.3025 0.9531 -32.3264 31.1012)" class="st3" width="38.1" height="124.2"/>
	
		<rect x="554.6" y="75.7" transform="matrix(0.3025 -0.9531 0.9531 0.3025 339.8355 653.8095)" class="st3" width="124.2" height="38.1"/>
	
		<rect x="594.9" y="88.5" transform="matrix(0.3025 -0.9531 0.9531 0.3025 355.7692 701.1981)" class="st3" width="124.2" height="38.1"/>
	
		<rect x="634.5" y="101.3" transform="matrix(0.3025 -0.9531 0.9531 0.3025 371.1951 747.92)" class="st3" width="124.2" height="38.1"/>
</g>
</svg>
